<?xml version="1.0" encoding="UTF-8"?>
<svg id="Layer_2" data-name="Layer 2" xmlns="http://www.w3.org/2000/svg" viewBox="0 0 206.19 50.2">
  <defs>
    <style>
      .cls-1 {
        fill: #fff;
      }
    </style>
  </defs>
  <g id="Layer_1-2" data-name="Layer 1">
    <g>
      <g>
        <path class="cls-1" d="M68.48,35.15v-15.37h-5.05v-4.7h15.34v4.7h-5.05v15.37h-5.24Z"/>
        <path class="cls-1" d="M88.63,35.31c-1.42,0-2.67-.14-3.74-.42-1.07-.28-1.97-.78-2.69-1.5s-1.26-1.75-1.62-3.09c-.36-1.34-.54-3.07-.54-5.2s.18-3.86,.54-5.2c.36-1.34,.9-2.37,1.62-3.09s1.62-1.22,2.69-1.5c1.07-.28,2.32-.42,3.74-.42s2.67,.14,3.74,.42c1.07,.28,1.97,.78,2.69,1.5,.72,.72,1.26,1.75,1.62,3.09,.36,1.34,.54,3.08,.54,5.2s-.18,3.86-.54,5.2c-.36,1.34-.9,2.37-1.62,3.09-.72,.72-1.62,1.22-2.69,1.5-1.07,.28-2.32,.42-3.74,.42Zm0-4.7c.68,0,1.24-.08,1.67-.24,.43-.16,.77-.44,1.01-.84,.24-.4,.41-.95,.51-1.67,.1-.72,.15-1.64,.15-2.76s-.05-2.12-.15-2.84c-.1-.72-.27-1.27-.51-1.66-.24-.39-.58-.65-1.01-.8-.43-.14-.99-.22-1.67-.22s-1.22,.07-1.66,.22c-.44,.14-.78,.41-1.03,.8-.24,.39-.41,.94-.51,1.66-.1,.72-.15,1.67-.15,2.84s.05,2.04,.15,2.76c.1,.72,.27,1.28,.51,1.67,.24,.4,.58,.68,1.03,.84,.44,.16,.99,.24,1.66,.24Z"/>
        <path class="cls-1" d="M99.68,35.15V15.08h8.32c2.16,0,3.71,.48,4.66,1.43s1.42,2.26,1.42,3.92c0,.77-.1,1.45-.31,2.04-.21,.59-.51,1.07-.92,1.46-.41,.39-.91,.65-1.53,.8,.47,.13,.91,.31,1.32,.57,.41,.25,.77,.59,1.08,1,.31,.42,.54,.9,.72,1.46,.17,.56,.26,1.19,.26,1.89,0,1.31-.23,2.38-.7,3.19-.47,.81-1.17,1.4-2.11,1.77s-2.1,.55-3.49,.55h-8.73Zm5.24-12.18h3.03c.4,0,.69-.15,.88-.46,.19-.31,.28-.68,.28-1.13,0-.61-.12-1.03-.37-1.26s-.51-.34-.8-.34h-3.03v3.19Zm0,7.48h3.32c.32,0,.59-.07,.81-.22,.22-.14,.38-.35,.5-.61s.18-.57,.18-.93-.06-.67-.18-.93c-.12-.26-.28-.46-.5-.61-.22-.14-.49-.22-.81-.22h-3.32v3.51Z"/>
        <path class="cls-1" d="M122.34,35.31c-.43,0-.95-.05-1.55-.14-.6-.09-1.19-.29-1.76-.59s-1.04-.78-1.42-1.42c-.38-.64-.57-1.52-.57-2.63v-10.48c0-.97,.15-1.78,.46-2.43,.31-.65,.7-1.16,1.19-1.53,.49-.37,1.03-.63,1.62-.78,.59-.15,1.17-.23,1.73-.23,1.51,0,2.81,.02,3.9,.07s2.04,.09,2.84,.15c.8,.05,1.51,.12,2.12,.19v4.43h-7.24c-.45,0-.79,.1-1.03,.3-.23,.2-.35,.5-.35,.89v1.67l7.27,.27v4.16l-7.27,.27v1.51c0,.32,.05,.59,.15,.8s.24,.36,.42,.46c.18,.1,.38,.15,.59,.15h7.46v4.43c-.77,.11-1.66,.2-2.65,.27-.99,.07-2,.13-3.03,.16s-1.99,.05-2.89,.05Z"/>
        <path class="cls-1" d="M144.11,35.15v-15.37h-5.05v-4.7h15.34v4.7h-5.05v15.37h-5.24Z"/>
        <path class="cls-1" d="M161.35,35.31c-.43,0-.95-.05-1.55-.14-.6-.09-1.19-.29-1.76-.59s-1.04-.78-1.42-1.42c-.38-.64-.57-1.52-.57-2.63v-10.48c0-.97,.15-1.78,.46-2.43,.31-.65,.7-1.16,1.19-1.53,.49-.37,1.03-.63,1.62-.78,.59-.15,1.17-.23,1.73-.23,1.51,0,2.81,.02,3.9,.07s2.04,.09,2.84,.15c.8,.05,1.51,.12,2.12,.19v4.43h-7.24c-.45,0-.79,.1-1.03,.3-.23,.2-.35,.5-.35,.89v1.67l7.27,.27v4.16l-7.27,.27v1.51c0,.32,.05,.59,.15,.8s.24,.36,.42,.46c.18,.1,.38,.15,.59,.15h7.46v4.43c-.77,.11-1.66,.2-2.65,.27-.99,.07-2,.13-3.03,.16s-1.99,.05-2.89,.05Z"/>
        <path class="cls-1" d="M179.23,35.31c-1.13,0-2.15-.14-3.05-.41-.9-.27-1.67-.77-2.32-1.49-.65-.72-1.14-1.76-1.49-3.11-.34-1.35-.51-3.11-.51-5.27s.18-3.8,.54-5.13c.36-1.33,.87-2.36,1.53-3.09s1.44-1.23,2.34-1.51c.9-.28,1.89-.42,2.97-.42s2.1,.06,2.96,.18c.85,.12,1.58,.26,2.19,.42s1.08,.32,1.45,.49v4.08c-.34-.07-.78-.14-1.32-.22-.54-.07-1.16-.13-1.85-.18-.69-.04-1.45-.07-2.26-.07-.61,0-1.13,.06-1.55,.19-.42,.13-.76,.38-1.01,.76-.25,.38-.44,.93-.55,1.66-.12,.73-.18,1.7-.18,2.9,0,1.08,.04,1.98,.14,2.7,.09,.72,.25,1.28,.49,1.69,.23,.41,.57,.69,1.01,.87s1.01,.26,1.72,.26c1.37,0,2.48-.02,3.34-.07,.86-.04,1.54-.1,2.04-.18v4.08c-.45,.18-.98,.33-1.58,.46s-1.31,.23-2.12,.3c-.81,.07-1.77,.11-2.89,.11Z"/>
        <path class="cls-1" d="M188.28,35.15V15.08h5.24v7.73h5.94v-7.73h5.24v20.07h-5.24v-7.65h-5.94v7.65h-5.24Z"/>
      </g>
      <g>
        <path class="cls-1" d="M29.99,18.58h-10.43c-.54,0-.98,.44-.98,.98v10.43c0,.54,.44,.98,.98,.98h10.43c.54,0,.98-.44,.98-.98v-10.43c0-.54-.44-.98-.98-.98Zm-.98,10.43h-8.47v-8.47h8.47v8.47Z"/>
        <path class="cls-1" d="M14.34,34.55c-.02,1.69,2.63,1.69,2.61,0,.02-1.69-2.63-1.69-2.61,0Z"/>
        <path class="cls-1" d="M49.54,23.47c1.08,0,1.96-.88,1.96-1.96s-.88-1.96-1.96-1.96h-7.17v-3.26h7.17c1.08,0,1.96-.88,1.96-1.96s-.88-1.96-1.96-1.96h-7.17v-2.61c0-1.08-.88-1.96-1.96-1.96h-2.61V1.96c0-1.08-.88-1.96-1.96-1.96s-1.96,.88-1.96,1.96V7.82h-3.26V1.96c0-1.08-.88-1.96-1.96-1.96s-1.96,.88-1.96,1.96V7.82h-3.26V1.96c0-1.08-.88-1.96-1.96-1.96s-1.96,.88-1.96,1.96V7.82h-3.26V1.96c0-1.08-.88-1.96-1.96-1.96s-1.96,.88-1.96,1.96V7.82h-2.61c-1.08,0-1.96,.88-1.96,1.96v2.61H1.96c-1.08,0-1.96,.88-1.96,1.96s.88,1.96,1.96,1.96H7.82v3.26H1.96c-1.08,0-1.96,.88-1.96,1.96s.88,1.96,1.96,1.96H7.82v3.26H1.96c-1.08,0-1.96,.88-1.96,1.96s.88,1.96,1.96,1.96H7.82v3.26H1.96c-1.08,0-1.96,.88-1.96,1.96s.88,1.96,1.96,1.96H7.82v2.61c0,1.08,.88,1.96,1.96,1.96h2.61v5.87c0,1.08,.88,1.96,1.96,1.96s1.96-.88,1.96-1.96v-5.87h3.26v5.87c0,1.08,.88,1.96,1.96,1.96s1.96-.88,1.96-1.96v-5.87h3.26v5.87c0,1.08,.88,1.96,1.96,1.96s1.96-.88,1.96-1.96v-5.87h3.26v5.87c0,1.08,.88,1.96,1.96,1.96s1.96-.88,1.96-1.96v-5.87h2.61c1.08,0,1.96-.88,1.96-1.96v-2.61h7.17c1.08,0,1.96-.88,1.96-1.96s-.88-1.96-1.96-1.96h-7.17v-3.26h7.17c1.08,0,1.96-.88,1.96-1.96s-.88-1.96-1.96-1.96h-7.17v-3.26h7.17Zm-11.08,14.99H11.73V11.73h26.73v26.73Z"/>
      </g>
    </g>
  </g>
</svg>